<svg xmlns="http://www.w3.org/2000/svg" viewBox="0 0 88.2 88.7" fill="#917a50"><path d="M1.4 44.6l.1-1.7 7.5.3-.1 1.7-7.5-.3zM5.4 26.9l.6-1.5 6.9 2.9-.6 1.5-5.7 1.5 4.3 1.8-.6 1.5-6.9-2.9.6-1.4 5.9-1.5-4.5-1.9zM16 14.8l4.2 4.3-1.2 1.2-4.2-4.3-1.5 1.5-1-1 4.2-4.1 1 1-1.5 1.4zM30.6 4.4l.6 1.4-3.4 1.4.6 1.4 3.1-1.3.5 1.4-3.1 1.3.6 1.4L33 9.9l.6 1.4-5.1 2.1-2.8-6.9 4.9-2.1zM47.7 4.8c0 1.2-.5 2-1.4 2.3l1.9 2.7h-2.1l-1.6-2.4h-1.2v2.4h-1.7l.1-7.5h2.8c1.2 0 2 .2 2.5.6s.7 1 .7 1.9zm-2 .9c.2-.2.3-.5.3-.9s-.1-.7-.3-.8c-.2-.2-.6-.2-1.1-.2h-1.3V6h1.2c.6-.1 1-.1 1.2-.3zM60.7 13.7v-1.8l-2.9-1.3-1.3 1.2-1.5-.6 6-5.5 1.5.7-.1 8.2-1.7-.9zm.1-5.7l-1.7 1.6 1.7.8V8zM71.8 20.6c.6.6 1.2.9 2.1.8l-.1 1.6c-1.3 0-2.3-.4-3.1-1.2-.8-.9-1.2-1.8-1.1-2.8s.5-1.9 1.3-2.7c.8-.8 1.8-1.1 2.8-1s2 .5 2.7 1.3c.8.9 1.2 2 1.1 3.2h-1.6c.1-.8-.1-1.5-.6-2.1-.4-.5-.9-.7-1.5-.8-.6-.1-1.2.2-1.7.6-.5.5-.8 1-.8 1.6-.1.5.1 1.1.5 1.5zM83.5 31.8l-5.7 2.1-.6-1.6 5.7-2.1-.7-2 1.4-.5 2 5.6-1.4.5-.7-2zM87.2 43.6v1.7l-7.5.2v-1.7l7.5-.2zM80.4 57.5l3.9 3.3-.6 1.7-6.1-5.3.5-1.3 8.1-.4-.6 1.7-5.2.3zM74.7 75.6l-1.1-1 2.5-2.8-1.2-1-2.2 2.5-1.1-.9 2.2-2.5-1.2-1-2.5 2.9-1.1-1 3.6-4.2 5.6 4.9-3.5 4.1zM48.3 80.5l1 1.5 3.1-.6.4-1.7 1.8-.3-1.9 7.9-1.6.3-4.5-6.8 1.7-.3zm3.2 4.8L52 83l-1.8.3 1.3 2zM32 83.8c.3-1.2.9-1.8 1.9-1.9l-1.2-3 2 .5 1.1 2.7 1.1.3.5-2.3 1.6.4-1.7 7.3-2.8-.8c-1.1-.3-1.9-.6-2.3-1.1-.3-.5-.4-1.2-.2-2.1zm2.1-.4c-.2.1-.4.4-.5.8s-.1.7.1.9c.2.2.5.4 1 .5l1.2.3.5-2.2-1.2-.3c-.4-.1-.8-.1-1.1 0zM19.4 78.4l3.5-4.9 1.4 1-3.5 4.9 1.7 1.2-.8 1.2-4.8-3.5.8-1.2 1.7 1.3zM9.8 68.2c.2.1.4 0 .6-.1.2-.1.3-.3.3-.5s-.1-.7-.4-1.4c-.2-.7-.3-1.3-.2-1.8s.4-1 1-1.3c.6-.4 1.2-.4 1.8-.2.6.2 1.2.6 1.6 1.3.6 1 .8 2.1.6 3.4l-1.6-.2c.2-1.1.1-1.9-.3-2.5-.2-.3-.4-.4-.6-.5-.2-.1-.4-.1-.6.1-.2.1-.3.3-.3.5s.1.6.3 1.1c.3.8.4 1.5.4 2-.1.5-.4 1-1 1.4s-1.2.5-1.8.2-1.2-.6-1.6-1.2c-.3-.4-.5-.9-.6-1.4-.1-.5-.2-1-.1-1.5l1.5.1c-.1.8.1 1.5.5 2.1.1.2.3.3.5.4z"/><g><path class="st0" d="M43.6 36.5c.2 0 .4 0 .6-.1.2.2.4.3.4.3s.2-.1.4-.3c.2.1.4.1.6.1.5 0 1.1-.2 1.5-.7.7-.8.8-1.9.1-2.5-.3-.2-.6-.4-1-.4-.5 0-1.1.2-1.5.7v-.3c.1-.1.2-.2.2-.3 0-.2-.1-.4-.3-.4v-.2h.4v-.2h-.3V32h-.2v.2h-.3v.2h.3v.2c-.2 0-.3.2-.3.4 0 .1.1.3.2.3v.3c-.4-.4-.9-.7-1.5-.7-.4 0-.7.1-1 .4-.6.6-.6 1.7.1 2.5.5.4 1 .7 1.6.7zm1.7-2.4c.3-.3.7-.5 1-.5.1 0 .3 0 .5.2.4.3.3 1-.2 1.5-.2.3-.6.4-.9.5.2-.3.7-1.1.3-1.5 0 .7-.7 1.1-1 1.1V35v-.3c0-.3.1-.5.3-.6zm-2.8-.3c.2-.1.4-.2.5-.2.4 0 .7.2 1 .5.1.1.2.3.3.5v.7c-.3 0-1-.3-1-1.1-.4.4.1 1.2.3 1.5-.3 0-.6-.2-.9-.5-.5-.4-.6-1.1-.2-1.4zM45.4 41.3c.5-.9 3.5.7 2.8-.9-.1 1.1-2.6 0-2.8.9z"/><path class="st0" d="M62.2 39.5c-2.1.9-3.6 1.1-3.6 1.1s3.2-2.7 2.6-5.7c-.7 1.3-3 2.2-3.9 2.5 0-.2 1.6-4.7-1.3-6.2 1.1 3.1-2.5 6.2-2.5 6.2s.2-1.6-.4-1.8c0 .7-1.6 2.9-1.6 2.9s.2-.2-.2-.5c-.3 2-2.6 2.1-2.6 3.8 0 .6.6 1.1.7 1.5.2.4 0 .7-.3 1-.7.7-1.3-.4-2.2-.4-.5 0-.8.2-1 .3-.3-.2-.9-.6-1.1-1.4 0 0 .1.1.3 0-.1 0-.2-.1-.2-.2.1-.5 1.5-.5 1.2-.1.4 0 1.1-.5.8-1-.1.4-1.3 0-2.1.6-.2-.7.7-1.5.7-1.5.6-.5 1-.4 1-.4 0-.1.1-.3.2-.4l.2-.2c.1-.1.2-.1.3-.1.4 0 .7.3.7.6.9-1.6-.3-1.8-.8-1.8.2-1.8-3.5-.6-4.3-.7-.8-.1-1-.7-1-.7-.4 1.5 1.1 1.8 1.4 1.8-.3.3-.7.7-.9 1 0 0-.5.5-.9.6-.4.1-.7-.3-.7-.3-.1 1 .8 1 1.1.9-.3.4-.4.9-.4 1.1-.5.1-.6-.2-.6-.2-.2.8.4.9.7.9-.2.5.3 1.1.3 1.1h-.3c-.8.1-1.4 1.1-2.1.4-.3-.3-.4-.6-.3-1 .2-.4.7-.9.7-1.5 0-1.7-2.2-1.8-2.6-3.8-.3.3-.2.5-.2.5s-1.7-2.2-1.6-2.9c-.7.2-.4 1.8-.4 1.8s-3.5-3.1-2.5-6.2c-2.9 1.5-1.4 6-1.3 6.2-.9-.3-3.2-1.2-3.9-2.5-.6 3 2.6 5.7 2.6 5.7s-1.5-.1-3.6-1.1c-.8 2 3.5 4.1 3.5 4.1s-2.3.9-3.2.9c1.3 1.9 3.9 1.3 3.9 1.3s-1.2 1.8-3.2 1.8c1.9 2.5 4.4.3 4.4.3s-.5 2.6-1.5 3.1c2.6.5 3.3-2.1 3.3-2.1s.7 2.6.4 3.9c2-.4 2.2-3 2.2-3.3.3.3 1 1.3.8 2.4 1.8-1.2.8-3.3.8-3.3s1.2 1 1 2.1c1.3-.9.8-2.1.8-2.1s1 .4.9 1.1c.6-.3.4-1.1.4-1.1s.7 1 .4 1.6c.3-.1.5-.2.6-.3.1.4.1.8-.1 1.1-1.4-.2-2.3 1.2-2 2.5-.4.4-1 .9-1.5 1.2-.8.6-1.2.2-1.3.1-.1-.1-.9-1.1-1-1.4-.1-.2-.4-.4-.6-.4H35h-.1c-.3.1-.5.5-.4.7 0 .3.3.7.3.7s-.1-.5.2-.5c-.2-.2.1-.6.2-.7-.2.3 0 .8.2 1 .3.3.5.3.5.3s-.1.2.9.8c0 0-1.3-.3-1.6-.4-.1 0-.3-.1-.5-.1-.1 0-.3 0-.4.1h-.1l-.2.2c-.4.4-.2.9.1 1.1.3.2.6.2.6.2s-.5-.2-.3-.5c-.4.1-.2-.6-.2-.7 0 .3.5.6.7.6.4.1.7 0 .7 0s.1.1.9.2c0 0-.1.2-.4.2-.4.1-.7.3-.9.5l-.1.1c-.6.6-.3 1.2.2 1.3.3.1.6 0 .6 0s-.5-.1-.4-.5c-.3.1-.4-.5-.4-.6l.1.1c.3.1.6.1.8 0 .2-.1.6-.5.8-.7.3-.2.6-.5.6-.5s1 .4 1.4.3c.3 0 .7-.1.9-.4.1.1.1.5-.1.5.3.2-.1.8-.1.8s.3-.1.6-.3c.4-.4.3-1.5-1.5-1.3l1.3-1.4c.2.3.5.6.9.8-.5-1.1.2-1.3.2-1.3l.4.4s.1-.9.9-.8c-1.6 2.5-1.6 6.1-4 6.4 1.7 1.4 2.8-.4 3.4-1.4 0 .6-.7 3.2-1.9 3.8 2.6.4 3.5-2.7 3.6-3.5 0 1-.2 4.1.7 5.3.9-1.2.8-4.3.7-5.3.2.8 1 3.9 3.6 3.5-1.2-.5-2-3.2-1.9-3.8.6 1 1.7 2.7 3.4 1.4-2.4-.3-2.3-3.9-4-6.4.8-.1.9.8.9.8l.4-.4s.7.2.2 1.3c.4-.2.7-.5.9-.8l1.3 1.4c-1.8-.1-1.9.9-1.5 1.3.2.2.6.3.6.3s-.4-.6-.1-.8c-.2 0-.2-.4-.1-.5.2.4.6.4.9.4.4 0 1.4-.3 1.4-.3s.3.4.6.5c.2.2.5.6.8.7.2.1.6.2.8 0 0 0 .1 0 .1-.1 0 .1 0 .7-.4.6.1.3-.4.5-.4.5s.3.1.6 0c.4-.1.7-.7.2-1.3l-.1-.1c-.2-.2-.5-.5-.9-.5-.1.1-.2-.1-.2-.1.8 0 .9-.2.9-.2s.3.1.7 0c.3-.1.7-.3.7-.6.1.1.2.8-.2.7.2.3-.3.5-.3.5s.4 0 .6-.2c.3-.2.5-.7.1-1.1l-.2-.2h-.1c-.1-.1-.2-.1-.4-.1s-.4 0-.5.1l-1.6.4c1-.6.9-.8.9-.8s.2 0 .5-.3c.2-.2.4-.7.2-1 .2.2.5.5.2.7.4 0 .2.5.2.5s.2-.4.3-.7c0-.3-.1-.6-.4-.7h-.4c-.2.1-.5.2-.6.4-.2.2-.9 1.2-1 1.4-.1.1-.5.5-1.3-.1-.4-.3-1-.9-1.5-1.2.4-1.3-.6-2.7-2-2.5-.2-.3-.2-.8-.1-1.1.1.1.3.2.6.3-.3-.6.4-1.6.4-1.6s-.2.9.4 1.1c0-.6 1-1 1-1s-.5 1.2.8 2.1c-.2-1.1 1-2.1 1-2.1s-1 2.1.8 3.3c-.3-1.2.5-2.2.8-2.4 0 .3.2 2.9 2.2 3.3-.3-1.3.4-3.9.4-3.9s.7 2.6 3.3 2.1c-.9-.4-1.5-3.1-1.5-3.1s2.5 2.2 4.4-.3c-2-.1-3.2-1.8-3.2-1.8s2.7.6 3.9-1.3c-.9 0-3.2-.9-3.2-.9s4.3-2.1 3.5-4.2z"/></g></svg>